Coordinates
version=1
nRows=33
nColumns=14
inDegrees=yes

Units are S.I. units (second, meters, Newtons, ...)
Angles are in degrees.

endheader
time	pelvis_tilt	pelvis_list	pelvis_rotation	pelvis_tx	pelvis_ty	pelvis_tz	hip_flexion_r	hip_adduction_r	hip_rotation_r	knee_angle_r	ankle_angle_r	subtalar_angle_r	mtp_angle_r
      0.00000000	    -14.57334557	     -2.79932138	      8.68291530	     -0.60795138	      0.84058741	     -0.12016966	     42.03373931	      1.23072156	    -12.44946633	    -11.11005755	     -4.65091868	     -1.37721736	      0.00000000
      0.01000000	    -14.49455965	     -2.96705890	      8.34136964	     -0.58993651	      0.84103620	     -0.11875886	     41.41138015	      1.87748291	    -11.24347254	    -11.60600503	     -8.13784468	     -2.89059472	      0.00000000
      0.02000000	    -14.56251881	     -3.20894599	      7.87936195	     -0.57211299	      0.84182311	     -0.11693798	     40.95500975	      2.62179509	    -10.51370907	    -12.38596682	     -9.58845403	     -2.82490787	      0.00000000
      0.03000000	    -14.66128548	     -3.54487279	      7.38772906	     -0.55449694	      0.84281562	     -0.11488830	     40.70247567	      3.42258397	     -9.98999915	    -13.73556382	     -9.86122200	     -2.26018309	      0.00000000
      0.04000000	    -14.70531787	     -3.97970039	      6.86137074	     -0.53743545	      0.84412976	     -0.11267635	     40.69708016	      4.35595672	     -8.89483803	    -15.76575566	     -9.97525461	     -3.05915689	      0.00000000
      0.05000000	    -14.57269490	     -4.42997303	      6.32325544	     -0.52068494	      0.84553823	     -0.11061168	     40.56416424	      5.30105647	     -8.23277163	    -17.91466723	     -9.10343032	     -3.61570857	      0.00000000
      0.06000000	    -14.34503825	     -4.98391054	      5.85855283	     -0.50445484	      0.84691031	     -0.10893581	     40.29274654	      6.25534223	     -7.99747690	    -20.00939922	     -7.63165863	     -3.68964647	      0.00000000
      0.07000000	    -14.10880915	     -5.51391180	      5.33465773	     -0.48881247	      0.84815643	     -0.10741302	     39.85683339	      7.22437503	     -7.78399233	    -21.75974584	     -6.04281684	     -3.53778879	      0.00000000
      0.08000000	    -13.92499462	     -5.98271421	      4.70793435	     -0.47389812	      0.84921497	     -0.10589028	     39.28594763	      8.17929614	     -7.58002950	    -23.06182277	     -4.62381069	     -3.36747507	      0.00000000
      0.09000000	    -13.77025043	     -6.48873778	      4.05260740	     -0.45933505	      0.85017388	     -0.10437724	     38.46771640	      9.15609027	     -7.60108958	    -23.80175060	     -3.20324792	     -3.03182335	      0.00000000
      0.10000000	    -13.66784731	     -6.99562075	      3.40495902	     -0.44518463	      0.85114700	     -0.10274961	     37.45656132	     10.12201253	     -7.76594679	    -24.02933634	     -1.72438825	     -2.43117446	      0.00000000
      0.11000000	    -13.64328247	     -7.45368486	      2.81686268	     -0.43136599	      0.85208874	     -0.10098878	     36.35701381	     10.99825854	     -8.03907102	    -23.89660986	     -0.35059243	     -1.78422278	      0.00000000
      0.12000000	    -13.69460945	     -7.72616765	      2.30926647	     -0.41789111	      0.85316111	     -0.09915285	     35.21245913	     11.67251876	     -8.25067212	    -23.53267838	      0.92823280	     -1.18940406	      0.00000000
      0.13000000	    -13.80116139	     -7.74320073	      1.87251218	     -0.40448181	      0.85458377	     -0.09728581	     34.00742894	     12.13391390	     -8.13743684	    -23.00484517	      1.97378563	     -0.93318186	      0.00000000
      0.14000000	    -14.06704424	     -7.59410899	      1.52918477	     -0.39126983	      0.85617638	     -0.09535358	     32.93374239	     12.44165493	     -7.72232582	    -22.39605704	      2.69043038	     -1.17080474	      0.00000000
      0.15000000	    -14.44467634	     -7.29475585	      1.25853207	     -0.37804577	      0.85797763	     -0.09347073	     31.94750495	     12.58944907	     -7.08826000	    -21.75063889	      3.17882007	     -1.66346966	      0.00000000
      0.16000000	    -14.82216404	     -6.87181899	      1.08047520	     -0.36476180	      0.85994466	     -0.09173832	     30.94370221	     12.55665462	     -6.41663809	    -21.09752792	      3.51074081	     -2.11678324	      0.00000000
      0.17000000	    -15.07231521	     -6.35542759	      0.96761820	     -0.35141627	      0.86214818	     -0.09024289	     29.78076056	     12.37291946	     -5.78323638	    -20.40835681	      3.86465877	     -2.51960767	      0.00000000
      0.18000000	    -15.21237758	     -5.77615901	      0.87621263	     -0.33800128	      0.86451685	     -0.08901906	     28.46562329	     12.06514860	     -5.22495682	    -19.65808193	      4.26334747	     -2.72421699	      0.00000000
      0.19000000	    -15.25961587	     -5.14272641	      0.75680590	     -0.32454592	      0.86699741	     -0.08800845	     26.99829789	     11.67813020	     -4.67425288	    -18.79809349	      4.61294112	     -2.85572966	      0.00000000
      0.20000000	    -15.22226052	     -4.51005584	      0.58775023	     -0.31095192	      0.86950624	     -0.08709520	     25.34259893	     11.31077305	     -4.04075084	    -17.73050072	      4.74912973	     -3.16888651	      0.00000000
      0.21000000	    -15.15401755	     -3.90965985	      0.40257796	     -0.29728809	      0.87186157	     -0.08637702	     23.59687869	     10.96419570	     -3.33033438	    -16.52836116	      4.71726576	     -3.66715303	      0.00000000
      0.22000000	    -15.10493296	     -3.37939774	      0.21578930	     -0.28367091	      0.87400301	     -0.08592794	     21.88100807	     10.60421731	     -2.59287126	    -15.36209736	      4.78409100	     -3.91545159	      0.00000000
      0.23000000	    -15.09442049	     -2.90020968	      0.03917311	     -0.27008527	      0.87579299	     -0.08565075	     20.19362334	     10.26518059	     -1.94918541	    -14.08599125	      4.76516012	     -4.22618448	      0.00000000
      0.24000000	    -15.09207059	     -2.52024062	     -0.13252936	     -0.25635866	      0.87723956	     -0.08542634	     18.49524360	     10.03502768	     -1.24805542	    -12.75777990	      4.51788390	     -4.79627942	      0.00000000
      0.25000000	    -15.16460223	     -2.19395639	     -0.31725247	     -0.24267868	      0.87819807	     -0.08532811	     16.96489666	      9.83246073	     -0.56789466	    -11.58376026	      4.07056002	     -5.70565257	      0.00000000
      0.26000000	    -15.26973882	     -1.93275329	     -0.49955682	     -0.22902281	      0.87873035	     -0.08531581	     15.51408387	      9.67927694	      0.07491491	    -10.44756705	      3.54970224	     -6.59930339	      0.00000000
      0.27000000	    -15.36182020	     -1.77972108	     -0.62184059	     -0.21522385	      0.87891658	     -0.08558527	     14.14787262	      9.54971140	      0.09352359	     -9.49753470	      3.52091810	     -6.62869559	      0.00000000
      0.28000000	    -15.43736600	     -1.68579832	     -0.72575076	     -0.20131757	      0.87872951	     -0.08600443	     12.79889104	      9.42998854	     -0.33424978	     -8.60646712	      3.91938162	     -6.14757531	      0.00000000
      0.29000000	    -15.62569585	     -1.51795058	     -0.98020962	     -0.18777875	      0.87792776	     -0.08616704	     11.57647006	      9.31184194	     -0.24848573	     -7.67762924	      3.98109387	     -6.36824520	      0.00000000
      0.30000000	    -15.75718380	     -1.44660618	     -1.19238255	     -0.17398235	      0.87682910	     -0.08649981	     10.33076620	      9.27252216	     -0.51920352	     -6.83015879	      4.16632996	     -6.22467875	      0.00000000
      0.31000000	    -15.75777820	     -1.42430609	     -1.38860524	     -0.15990565	      0.87554571	     -0.08693373	      9.00518020	      9.27701136	     -1.05417176	     -6.12577064	      4.52843902	     -5.99769065	      0.00000000
      0.32000000	    -15.62234132	     -1.44826517	     -1.60263491	     -0.14558904	      0.87409745	     -0.08741510	      7.58480275	      9.32317610	     -1.53911510	     -5.59700589	      4.90534113	     -5.84420828	      0.00000000
